<svg id="visual" viewBox="0 0 900 600" width="900" height="600" xmlns="http://www.w3.org/2000/svg" xmlns:xlink="http://www.w3.org/1999/xlink" version="1.1"><path d="M0 358L18.8 359C37.7 360 75.3 362 112.8 365.3C150.3 368.7 187.7 373.3 225.2 369.2C262.7 365 300.3 352 337.8 350.7C375.3 349.3 412.7 359.7 450.2 360.2C487.7 360.7 525.3 351.3 562.8 349.7C600.3 348 637.7 354 675.2 356.5C712.7 359 750.3 358 787.8 357.5C825.3 357 862.7 357 881.3 357L900 357L900 601L881.3 601C862.7 601 825.3 601 787.8 601C750.3 601 712.7 601 675.2 601C637.7 601 600.3 601 562.8 601C525.3 601 487.7 601 450.2 601C412.7 601 375.3 601 337.8 601C300.3 601 262.7 601 225.2 601C187.7 601 150.3 601 112.8 601C75.3 601 37.7 601 18.8 601L0 601Z" fill="#0066FF" stroke-linecap="round" stroke-linejoin="miter"></path></svg>