<svg id="visual" viewBox="0 0 900 600" width="900" height="600" xmlns="http://www.w3.org/2000/svg" xmlns:xlink="http://www.w3.org/1999/xlink" version="1.1"><path d="M0 361L18.8 359.2C37.7 357.3 75.3 353.7 112.8 353.3C150.3 353 187.7 356 225.2 355.3C262.7 354.7 300.3 350.3 337.8 351.5C375.3 352.7 412.7 359.3 450.2 365.2C487.7 371 525.3 376 562.8 374C600.3 372 637.7 363 675.2 360.8C712.7 358.7 750.3 363.3 787.8 362.2C825.3 361 862.7 354 881.3 350.5L900 347L900 601L881.3 601C862.7 601 825.3 601 787.8 601C750.3 601 712.7 601 675.2 601C637.7 601 600.3 601 562.8 601C525.3 601 487.7 601 450.2 601C412.7 601 375.3 601 337.8 601C300.3 601 262.7 601 225.2 601C187.7 601 150.3 601 112.8 601C75.3 601 37.7 601 18.8 601L0 601Z" fill="#0066FF" stroke-linecap="round" stroke-linejoin="miter"></path></svg>