<svg id="visual" viewBox="0 0 900 600" width="900" height="600" xmlns="http://www.w3.org/2000/svg" xmlns:xlink="http://www.w3.org/1999/xlink" version="1.1"><path d="M0 373L18.8 373.5C37.7 374 75.3 375 112.8 373.3C150.3 371.7 187.7 367.3 225.2 362.8C262.7 358.3 300.3 353.7 337.8 352C375.3 350.3 412.7 351.7 450.2 355.8C487.7 360 525.3 367 562.8 364.5C600.3 362 637.7 350 675.2 349.5C712.7 349 750.3 360 787.8 362.7C825.3 365.3 862.7 359.7 881.3 356.8L900 354L900 601L881.3 601C862.7 601 825.3 601 787.8 601C750.3 601 712.7 601 675.2 601C637.7 601 600.3 601 562.8 601C525.3 601 487.7 601 450.2 601C412.7 601 375.3 601 337.8 601C300.3 601 262.7 601 225.2 601C187.7 601 150.3 601 112.8 601C75.3 601 37.7 601 18.8 601L0 601Z" fill="#0066FF" stroke-linecap="round" stroke-linejoin="miter"></path></svg>