<svg id="visual" viewBox="0 0 900 600" width="900" height="600" xmlns="http://www.w3.org/2000/svg" xmlns:xlink="http://www.w3.org/1999/xlink" version="1.1"><path d="M0 347L18.8 350.5C37.7 354 75.3 361 112.8 361.5C150.3 362 187.7 356 225.2 357C262.7 358 300.3 366 337.8 368C375.3 370 412.7 366 450.2 362.8C487.7 359.7 525.3 357.3 562.8 356C600.3 354.7 637.7 354.3 675.2 352C712.7 349.7 750.3 345.3 787.8 346.5C825.3 347.7 862.7 354.3 881.3 357.7L900 361L900 601L881.3 601C862.7 601 825.3 601 787.8 601C750.3 601 712.7 601 675.2 601C637.7 601 600.3 601 562.8 601C525.3 601 487.7 601 450.2 601C412.7 601 375.3 601 337.8 601C300.3 601 262.7 601 225.2 601C187.7 601 150.3 601 112.8 601C75.3 601 37.7 601 18.8 601L0 601Z" fill="#0066FF" stroke-linecap="round" stroke-linejoin="miter"></path></svg>