<svg id="visual" viewBox="0 0 900 600" width="900" height="600" xmlns="http://www.w3.org/2000/svg" xmlns:xlink="http://www.w3.org/1999/xlink" version="1.1"><path d="M0 373L18.8 368.8C37.7 364.7 75.3 356.3 112.8 353.7C150.3 351 187.7 354 225.2 355.3C262.7 356.7 300.3 356.3 337.8 356.7C375.3 357 412.7 358 450.2 355.3C487.7 352.7 525.3 346.3 562.8 347.8C600.3 349.3 637.7 358.7 675.2 362.3C712.7 366 750.3 364 787.8 362.3C825.3 360.7 862.7 359.3 881.3 358.7L900 358L900 601L881.3 601C862.7 601 825.3 601 787.8 601C750.3 601 712.7 601 675.2 601C637.7 601 600.3 601 562.8 601C525.3 601 487.7 601 450.2 601C412.7 601 375.3 601 337.8 601C300.3 601 262.7 601 225.2 601C187.7 601 150.3 601 112.8 601C75.3 601 37.7 601 18.8 601L0 601Z" fill="#0066FF" stroke-linecap="round" stroke-linejoin="miter"></path></svg>