<svg id="visual" viewBox="0 0 900 600" width="900" height="600" xmlns="http://www.w3.org/2000/svg" xmlns:xlink="http://www.w3.org/1999/xlink" version="1.1"><path d="M0 374L18.8 373.2C37.7 372.3 75.3 370.7 112.8 364.8C150.3 359 187.7 349 225.2 350.5C262.7 352 300.3 365 337.8 365.2C375.3 365.3 412.7 352.7 450.2 347.7C487.7 342.7 525.3 345.3 562.8 350.3C600.3 355.3 637.7 362.7 675.2 360.5C712.7 358.3 750.3 346.7 787.8 344.8C825.3 343 862.7 351 881.3 355L900 359L900 601L881.3 601C862.7 601 825.3 601 787.8 601C750.3 601 712.7 601 675.2 601C637.7 601 600.3 601 562.8 601C525.3 601 487.7 601 450.2 601C412.7 601 375.3 601 337.8 601C300.3 601 262.7 601 225.2 601C187.7 601 150.3 601 112.8 601C75.3 601 37.7 601 18.8 601L0 601Z" fill="#0066FF" stroke-linecap="round" stroke-linejoin="miter"></path></svg>