<svg id="visual" viewBox="0 0 900 600" width="900" height="600" xmlns="http://www.w3.org/2000/svg" xmlns:xlink="http://www.w3.org/1999/xlink" version="1.1"><path d="M0 382L18.8 378C37.7 374 75.3 366 112.8 359.7C150.3 353.3 187.7 348.7 225.2 350.2C262.7 351.7 300.3 359.3 337.8 359.5C375.3 359.7 412.7 352.3 450.2 354.8C487.7 357.3 525.3 369.7 562.8 373.3C600.3 377 637.7 372 675.2 371.7C712.7 371.3 750.3 375.7 787.8 371.2C825.3 366.7 862.7 353.3 881.3 346.7L900 340L900 601L881.3 601C862.7 601 825.3 601 787.8 601C750.3 601 712.7 601 675.2 601C637.7 601 600.3 601 562.8 601C525.3 601 487.7 601 450.2 601C412.7 601 375.3 601 337.8 601C300.3 601 262.7 601 225.2 601C187.7 601 150.3 601 112.8 601C75.3 601 37.7 601 18.8 601L0 601Z" fill="#0066FF" stroke-linecap="round" stroke-linejoin="miter"></path></svg>