<svg id="visual" viewBox="0 0 900 600" width="900" height="600" xmlns="http://www.w3.org/2000/svg" xmlns:xlink="http://www.w3.org/1999/xlink" version="1.1"><path d="M0 383L18.8 380.5C37.7 378 75.3 373 112.8 367.8C150.3 362.7 187.7 357.3 225.2 352.5C262.7 347.7 300.3 343.3 337.8 345.2C375.3 347 412.7 355 450.2 357.2C487.7 359.3 525.3 355.7 562.8 357.8C600.3 360 637.7 368 675.2 368.2C712.7 368.3 750.3 360.7 787.8 357.5C825.3 354.3 862.7 355.7 881.3 356.3L900 357L900 601L881.3 601C862.7 601 825.3 601 787.8 601C750.3 601 712.7 601 675.2 601C637.7 601 600.3 601 562.8 601C525.3 601 487.7 601 450.2 601C412.7 601 375.3 601 337.8 601C300.3 601 262.7 601 225.2 601C187.7 601 150.3 601 112.8 601C75.3 601 37.7 601 18.8 601L0 601Z" fill="#0066FF" stroke-linecap="round" stroke-linejoin="miter"></path></svg>