<svg id="visual" viewBox="0 0 900 600" width="900" height="600" xmlns="http://www.w3.org/2000/svg" xmlns:xlink="http://www.w3.org/1999/xlink" version="1.1"><path d="M0 362L18.8 361C37.7 360 75.3 358 112.8 360.8C150.3 363.7 187.7 371.3 225.2 371.3C262.7 371.3 300.3 363.7 337.8 361C375.3 358.3 412.7 360.7 450.2 360.3C487.7 360 525.3 357 562.8 353C600.3 349 637.7 344 675.2 345.7C712.7 347.3 750.3 355.7 787.8 362.5C825.3 369.3 862.7 374.7 881.3 377.3L900 380L900 601L881.3 601C862.7 601 825.3 601 787.8 601C750.3 601 712.7 601 675.2 601C637.7 601 600.3 601 562.8 601C525.3 601 487.7 601 450.2 601C412.7 601 375.3 601 337.8 601C300.3 601 262.7 601 225.2 601C187.7 601 150.3 601 112.8 601C75.3 601 37.7 601 18.8 601L0 601Z" fill="#0066FF" stroke-linecap="round" stroke-linejoin="miter"></path></svg>