<svg id="visual" viewBox="0 0 900 600" width="900" height="600" xmlns="http://www.w3.org/2000/svg" xmlns:xlink="http://www.w3.org/1999/xlink" version="1.1"><path d="M0 373L18.8 369.3C37.7 365.7 75.3 358.3 112.8 356.7C150.3 355 187.7 359 225.2 358C262.7 357 300.3 351 337.8 346.3C375.3 341.7 412.7 338.3 450.2 337C487.7 335.7 525.3 336.3 562.8 339.7C600.3 343 637.7 349 675.2 355.2C712.7 361.3 750.3 367.7 787.8 367.5C825.3 367.3 862.7 360.7 881.3 357.3L900 354L900 601L881.3 601C862.7 601 825.3 601 787.8 601C750.3 601 712.7 601 675.2 601C637.7 601 600.3 601 562.8 601C525.3 601 487.7 601 450.2 601C412.7 601 375.3 601 337.8 601C300.3 601 262.7 601 225.2 601C187.7 601 150.3 601 112.8 601C75.3 601 37.7 601 18.8 601L0 601Z" fill="#0066FF" stroke-linecap="round" stroke-linejoin="miter"></path></svg>